<svg xmlns="http://www.w3.org/2000/svg" width="83.193" height="36.066" viewBox="0 0 83.193 36.066"><defs><style>.a{fill:#f8a724;}.a,.c{fill-rule:evenodd;}.b,.c{fill:#0a559e;}</style></defs><g transform="translate(-88 -113.81)"><path class="a" d="M282.773,141.52v-9.878h-2.894v-3.057H286.3V141.52Z" transform="translate(-158.033 -12.168)"/><path class="b" d="M221.98,135.9a6.438,6.438,0,0,0,1.55,1.332,3.035,3.035,0,0,0,1.523.44,1.747,1.747,0,0,0,1.161-.38,1.2,1.2,0,0,0,.455-.962,1.255,1.255,0,0,0-.392-.992,4.969,4.969,0,0,0-1.776-.721,5.831,5.831,0,0,1-2.69-1.333,3.126,3.126,0,0,1-.787-2.252,3.968,3.968,0,0,1,1.242-3.027,4.5,4.5,0,0,1,3.221-1.17,7.086,7.086,0,0,1,2.029.286,6.638,6.638,0,0,1,1.818.871l-1.107,2.533a4.661,4.661,0,0,0-1.233-.772,3.272,3.272,0,0,0-1.248-.259,1.656,1.656,0,0,0-1.031.3.941.941,0,0,0-.4.781.967.967,0,0,0,.347.778,3.771,3.771,0,0,0,1.345.555l.16.045a6.569,6.569,0,0,1,2.837,1.282,3.145,3.145,0,0,1,.7,1.143,4.353,4.353,0,0,1,.238,1.481,4.287,4.287,0,0,1-1.35,3.307,5.1,5.1,0,0,1-3.606,1.252,6.425,6.425,0,0,1-2.464-.458,6.972,6.972,0,0,1-2.132-1.441l1.589-2.623Z" transform="translate(-109.038 -10.732)"/><path class="b" d="M145.744,128.585h3.51v6.293c0,.922.024,1.589.069,1.99a3.818,3.818,0,0,0,.241,1.013,1.462,1.462,0,0,0,.706.757,3.027,3.027,0,0,0,2.451,0,1.5,1.5,0,0,0,.709-.757,3.778,3.778,0,0,0,.241-1.013c.045-.4.069-1.068.069-1.99v-6.293h3.51v6.839a13.9,13.9,0,0,1-.257,3.142,4.246,4.246,0,0,1-.865,1.728,4,4,0,0,1-1.819,1.179,10.261,10.261,0,0,1-5.62,0,4.066,4.066,0,0,1-1.824-1.179,4.356,4.356,0,0,1-.862-1.728,13.863,13.863,0,0,1-.259-3.142v-6.839Z" transform="translate(-47.558 -12.169)"/><path class="b" d="M92.143,128.585h3.51v8.4a9.513,9.513,0,0,1-.178,2.1,3.65,3.65,0,0,1-.582,1.3,3.5,3.5,0,0,1-1.324,1.11,4.047,4.047,0,0,1-1.764.374,4.447,4.447,0,0,1-2.171-.522A4.616,4.616,0,0,1,88,139.8l2.153-1.954a1.58,1.58,0,0,0,.371.883.966.966,0,0,0,.736.31.707.707,0,0,0,.694-.558,11.766,11.766,0,0,0,.19-2.783v-7.116Z" transform="translate(0 -12.169)"/><path class="b" d="M426.022,141.521V128.586h3.4l4.891,6.651c.093.136.247.41.461.82s.452.9.711,1.462c-.069-.537-.12-1.013-.153-1.432s-.048-.79-.048-1.113v-6.389h3.383v12.935h-3.383l-4.888-6.679a7.143,7.143,0,0,1-.473-.817c-.217-.41-.449-.893-.7-1.448.07.543.121,1.022.154,1.442s.048.79.048,1.112v6.389Z" transform="translate(-278.397 -12.17)"/><path class="b" d="M513.407,141.521V128.586h7.924v2.84h-4.487v2.243h4.23v2.768h-4.23v2.189h4.487v2.894Z" transform="translate(-350.368 -12.17)"/><path class="a" d="M342.061,126.71a3.1,3.1,0,0,1-2.439-1.07,4.372,4.372,0,0,1,.016-5.445,3.273,3.273,0,0,1,3.99-.688l2.259-2.259a7,7,0,0,0-3-1.072V113.81h-1.952v2.407a6.913,6.913,0,0,0-1.525.425,6.807,6.807,0,0,0-2.228,1.471,6.639,6.639,0,0,0,0,9.595,6.8,6.8,0,0,0,2.228,1.471,6.942,6.942,0,0,0,1.525.425v2.053h1.952v-2.012a6.967,6.967,0,0,0,1.817-.466,7.219,7.219,0,0,0,1.175-.611l-2.245-2.246A3.188,3.188,0,0,1,342.061,126.71Z" transform="translate(-203.554)"/><path class="b" d="M92.708,238.281H88.323V221.149h4.888a19.608,19.608,0,0,1,4.025.279,4.762,4.762,0,0,1,1.965.959,5.072,5.072,0,0,1,1.446,1.96,6.667,6.667,0,0,1,.5,2.616,6.881,6.881,0,0,1-.491,2.7,4.681,4.681,0,0,1-1.45,1.913,4.543,4.543,0,0,1-1.709.807,14.3,14.3,0,0,1-3.147.248H92.708v5.655Zm0-9.416h.89a4.341,4.341,0,0,0,2.348-.463,1.778,1.778,0,0,0,.667-1.573,1.738,1.738,0,0,0-.655-1.534,4.276,4.276,0,0,0-2.316-.455h-.935v4.026Zm10.8,9.416V221.149h10.495v3.762h-5.942v2.971h5.6v3.666h-5.6v2.9h5.942v3.834Zm13.582,0V221.149h4.5l6.477,8.809c.124.18.328.543.611,1.087s.6,1.186.942,1.937c-.092-.711-.16-1.342-.2-1.9s-.064-1.046-.064-1.474v-8.462h4.481v17.132H129.36l-6.473-8.845a9.4,9.4,0,0,1-.627-1.083c-.288-.543-.6-1.182-.93-1.916.092.718.16,1.353.2,1.908s.064,1.047.064,1.474v8.463Zm20.414,0V221.149h4.505l6.477,8.809a12.381,12.381,0,0,1,.611,1.087c.288.539.6,1.186.943,1.937-.092-.711-.16-1.342-.2-1.9s-.064-1.046-.064-1.474v-8.462h4.481v17.132h-4.481l-6.474-8.845a9.5,9.5,0,0,1-.627-1.083c-.287-.543-.6-1.182-.93-1.916.092.718.16,1.353.2,1.908s.064,1.047.064,1.474v8.463Zm23.458,0v-7.82l-5.991-9.312h5.359l2.3,4.413a1.078,1.078,0,0,1,.072.128,5.566,5.566,0,0,1,.5,1.322,4.45,4.45,0,0,1,.5-1.273c.044-.088.076-.144.092-.176l2.281-4.413h5.371l-5.991,9.312v7.82Z" transform="translate(-0.266 -88.405)"/><path class="c" d="M392.571,142.051a6.579,6.579,0,0,1-2.005,4.8q-.107.1-.217.2l-2.27-2.27,0-.006a4.312,4.312,0,0,0-.012-5.437l-.006-.006,2.282-2.282q.11.1.217.2a6.61,6.61,0,0,1,2.005,4.8Z" transform="translate(-247.137 -19.14)"/></g></svg>