<svg xmlns="http://www.w3.org/2000/svg" width="96.763" height="41.949" viewBox="0 0 96.763 41.949"><defs><style>.a{fill:#f8a724;}.a,.c{fill-rule:evenodd;}.b,.c{fill:#0a559e;}</style></defs><g transform="translate(-88 -113.81)"><path class="a" d="M283.245,143.63V132.141h-3.366v-3.556h7.469V143.63Z" transform="translate(-152.512 -11.743)"/><path class="b" d="M222.239,137.383a7.488,7.488,0,0,0,1.8,1.55,3.53,3.53,0,0,0,1.771.512,2.032,2.032,0,0,0,1.35-.442,1.39,1.39,0,0,0,.53-1.119,1.46,1.46,0,0,0-.456-1.154,5.779,5.779,0,0,0-2.066-.838,6.782,6.782,0,0,1-3.128-1.55,3.636,3.636,0,0,1-.915-2.62,4.615,4.615,0,0,1,1.445-3.521,5.236,5.236,0,0,1,3.746-1.361,8.242,8.242,0,0,1,2.36.333,7.72,7.72,0,0,1,2.114,1.014l-1.287,2.946a5.42,5.42,0,0,0-1.434-.9,3.806,3.806,0,0,0-1.452-.3,1.926,1.926,0,0,0-1.2.354,1.1,1.1,0,0,0-.463.908,1.124,1.124,0,0,0,.4.9,4.387,4.387,0,0,0,1.564.645l.186.053a7.64,7.64,0,0,1,3.3,1.491,3.657,3.657,0,0,1,.814,1.329,5.063,5.063,0,0,1,.277,1.722,4.986,4.986,0,0,1-1.571,3.847,5.928,5.928,0,0,1-4.194,1.456,7.473,7.473,0,0,1-2.866-.533,8.11,8.11,0,0,1-2.479-1.676l1.848-3.051Z" transform="translate(-105.229 -10.357)"/><path class="b" d="M145.744,128.585h4.082V135.9c0,1.073.028,1.848.08,2.314a4.44,4.44,0,0,0,.28,1.179,1.7,1.7,0,0,0,.821.88,3.52,3.52,0,0,0,2.851,0,1.745,1.745,0,0,0,.824-.88,4.394,4.394,0,0,0,.281-1.179c.053-.467.081-1.242.081-2.314v-7.319h4.082v7.954a16.164,16.164,0,0,1-.3,3.654,4.939,4.939,0,0,1-1.006,2.009,4.648,4.648,0,0,1-2.115,1.371,11.935,11.935,0,0,1-6.537,0,4.729,4.729,0,0,1-2.122-1.371,5.067,5.067,0,0,1-1-2.009,16.125,16.125,0,0,1-.3-3.654v-7.954Z" transform="translate(-45.897 -11.744)"/><path class="b" d="M92.819,128.585H96.9v9.767a11.064,11.064,0,0,1-.207,2.444,4.246,4.246,0,0,1-.677,1.508,4.067,4.067,0,0,1-1.54,1.291,4.707,4.707,0,0,1-2.052.435,5.172,5.172,0,0,1-2.525-.607,5.369,5.369,0,0,1-1.9-1.792l2.5-2.272a1.837,1.837,0,0,0,.431,1.027,1.124,1.124,0,0,0,.856.361.822.822,0,0,0,.807-.649,13.684,13.684,0,0,0,.221-3.237v-8.277Z" transform="translate(0 -11.744)"/><path class="b" d="M426.022,143.631V128.586h3.956l5.688,7.736c.109.158.287.477.536.954s.526,1.042.827,1.7c-.08-.624-.14-1.178-.178-1.666s-.056-.919-.056-1.294v-7.431h3.934v15.045H436.8l-5.685-7.768a8.314,8.314,0,0,1-.551-.95c-.253-.477-.522-1.038-.817-1.684.081.631.141,1.189.179,1.677s.056.919.056,1.294v7.432Z" transform="translate(-268.672 -11.744)"/><path class="b" d="M513.407,143.631V128.586h9.216v3.3H517.4V134.5h4.92v3.219H517.4v2.546h5.219v3.367Z" transform="translate(-338.128 -11.745)"/><path class="a" d="M343.188,128.814a3.61,3.61,0,0,1-2.837-1.245,5.085,5.085,0,0,1,.018-6.333,3.807,3.807,0,0,1,4.641-.8l2.627-2.627a8.137,8.137,0,0,0-3.488-1.247V113.81h-2.27v2.8a8.041,8.041,0,0,0-1.774.494,7.918,7.918,0,0,0-2.591,1.711,7.722,7.722,0,0,0,0,11.16,7.913,7.913,0,0,0,2.591,1.711,8.074,8.074,0,0,0,1.774.494v2.388h2.27v-2.34a8.1,8.1,0,0,0,2.114-.542,8.4,8.4,0,0,0,1.367-.71l-2.611-2.612A3.709,3.709,0,0,1,343.188,128.814Z" transform="translate(-196.443)"/><path class="b" d="M93.423,241.075h-5.1V221.149h5.686a22.805,22.805,0,0,1,4.682.325,5.539,5.539,0,0,1,2.285,1.115,5.9,5.9,0,0,1,1.682,2.28,7.754,7.754,0,0,1,.576,3.043,8,8,0,0,1-.572,3.136,5.445,5.445,0,0,1-1.686,2.225,5.284,5.284,0,0,1-1.988.938,16.627,16.627,0,0,1-3.66.288h-1.9v6.577Zm0-10.952h1.036a5.049,5.049,0,0,0,2.731-.539,2.068,2.068,0,0,0,.776-1.83,2.021,2.021,0,0,0-.762-1.784,4.974,4.974,0,0,0-2.694-.53H93.423v4.682Zm12.564,10.952V221.149h12.207v4.375h-6.911v3.456H117.8v4.264h-6.517v3.373h6.911v4.459Zm15.8,0V221.149h5.24l7.534,10.246c.144.209.381.632.711,1.264s.7,1.38,1.1,2.253c-.107-.827-.186-1.56-.237-2.207s-.074-1.217-.074-1.714v-9.842h5.212v19.926h-5.212l-7.529-10.288a10.927,10.927,0,0,1-.729-1.26c-.334-.631-.692-1.375-1.082-2.229.107.836.186,1.574.237,2.219s.074,1.218.074,1.714v9.843Zm23.744,0V221.149h5.24L158.3,231.4a14.4,14.4,0,0,1,.71,1.264c.335.627.7,1.38,1.1,2.253-.107-.827-.186-1.56-.237-2.207s-.074-1.217-.074-1.714v-9.842h5.212v19.926H159.8l-7.53-10.288a11.051,11.051,0,0,1-.729-1.26c-.334-.631-.692-1.375-1.082-2.229.106.836.186,1.574.237,2.219s.074,1.218.074,1.714v9.843Zm27.285,0v-9.1l-6.968-10.831h6.233l2.68,5.132a1.255,1.255,0,0,1,.083.149,6.474,6.474,0,0,1,.586,1.537,5.175,5.175,0,0,1,.585-1.481c.051-.1.089-.168.107-.2l2.653-5.132h6.247l-6.968,10.831v9.1Z" transform="translate(-0.257 -85.317)"/><path class="c" d="M393.306,142.867a7.652,7.652,0,0,1-2.332,5.58q-.124.12-.252.234l-2.64-2.64.006-.007a5.016,5.016,0,0,0-.014-6.324l-.007-.007,2.655-2.654q.128.116.252.238a7.688,7.688,0,0,1,2.332,5.58Z" transform="translate(-238.504 -18.471)"/></g></svg>