<svg xmlns="http://www.w3.org/2000/svg" xmlns:xlink="http://www.w3.org/1999/xlink" width="529.852" height="121.514" viewBox="0 0 529.852 121.514"><defs><style>.a,.b{fill:#0a559e;}.b,.c{fill-rule:evenodd;}.c{fill:#f8a724;}.d{fill:url(#a);}</style><linearGradient id="a" x1="-0.157" x2="1.232" gradientUnits="objectBoundingBox"><stop offset="0" stop-color="#2b78ae"/><stop offset="1" stop-color="#fff" stop-opacity="0"/></linearGradient></defs><g transform="translate(-624 -216.4)"><g transform="translate(826.754 216.4)"><path class="a" d="M513.407,216.652V128.586h53.948v19.337H536.807V163.2h28.8V182.04h-28.8v14.906h30.548v19.706Z" transform="translate(-240.258 -109.514)"/><path class="a" d="M426.022,216.653V128.586h23.156l33.3,45.286c.635.924,1.683,2.791,3.14,5.583,1.477,2.772,3.08,6.1,4.841,9.956-.47-3.654-.819-6.9-1.043-9.751s-.33-5.379-.33-7.576v-43.5h23.031v88.066H489.084l-33.279-45.471a48.652,48.652,0,0,1-3.223-5.562c-1.478-2.793-3.055-6.078-4.782-9.856.474,3.7.824,6.961,1.048,9.815s.329,5.377.329,7.572v43.5Z" transform="translate(-257.823 -109.513)"/><path class="b" d="M418.735,171.1a44.794,44.794,0,0,1-13.651,32.661q-.726.7-1.477,1.372l-15.453-15.453.034-.042q6.53-7.363,6.528-18.538,0-11.055-6.608-18.478l-.041-.041,15.539-15.536q.749.679,1.477,1.391A45,45,0,0,1,418.735,171.1Z" transform="translate(-261.268 -107.812)"/><path class="c" d="M382.2,201.639a21.129,21.129,0,0,1-16.607-7.287q-6.439-7.267-6.424-18.578,0-11.118,6.529-18.5a22.283,22.283,0,0,1,27.168-4.684l15.38-15.378a47.633,47.633,0,0,0-20.415-7.3V113.81H374.543V130.2a47.067,47.067,0,0,0-10.386,2.894,46.35,46.35,0,0,0-15.169,10.016,45.2,45.2,0,0,0,0,65.325,46.318,46.318,0,0,0,15.169,10.018,47.265,47.265,0,0,0,10.386,2.894v13.977h13.289v-13.7a47.438,47.438,0,0,0,12.372-3.173,49.151,49.151,0,0,0,8-4.158l-15.283-15.288A21.708,21.708,0,0,1,382.2,201.639Z" transform="translate(-270.63 -113.81)"/><path class="c" d="M299.585,216.654V149.4H279.879V128.585H323.6l.005,88.069Z" transform="translate(-279.879 -109.515)"/></g><path class="d" d="M41.269-18.035H3V-33.723L38.792-88.506H59.1v54.783h11.27v15.688H59.1V-.354H41.269Zm0-46.068h-.248L21.577-33.723H41.269ZM77.432-44.43a91.83,91.83,0,0,1,1.424-15.937,46.86,46.86,0,0,1,5.078-14.692,30.337,30.337,0,0,1,9.97-10.77Q100.22-90,110-90t16.1,4.171a30.337,30.337,0,0,1,9.97,10.77,46.86,46.86,0,0,1,5.078,14.692,91.831,91.831,0,0,1,1.424,15.937,91.831,91.831,0,0,1-1.424,15.937A46.86,46.86,0,0,1,136.074-13.8a30.337,30.337,0,0,1-9.97,10.77Q119.788,1.14,110,1.14T93.9-3.031a30.337,30.337,0,0,1-9.97-10.77,46.86,46.86,0,0,1-5.078-14.692A91.83,91.83,0,0,1,77.432-44.43Zm18.577,0q0,3.486.31,8.342a40.965,40.965,0,0,0,1.672,9.338,19.863,19.863,0,0,0,4.149,7.595q2.787,3.113,7.864,3.113a10.05,10.05,0,0,0,7.8-3.113,19.432,19.432,0,0,0,4.211-7.595,40.965,40.965,0,0,0,1.672-9.338q.31-4.856.31-8.342t-.31-8.342a40.965,40.965,0,0,0-1.672-9.338,19.432,19.432,0,0,0-4.211-7.595,10.05,10.05,0,0,0-7.8-3.113q-5.078,0-7.864,3.113a19.863,19.863,0,0,0-4.149,7.595,40.965,40.965,0,0,0-1.672,9.338Q96.009-47.916,96.009-44.43Zm91.895,26.4H149.635V-33.723l35.792-54.783h20.311v54.783h11.27v15.688h-11.27V-.354H187.9Zm0-46.068h-.248l-19.444,30.38H187.9Z" transform="translate(621 323.917)"/></g></svg>