<svg xmlns="http://www.w3.org/2000/svg" xmlns:xlink="http://www.w3.org/1999/xlink" width="288.615" height="66.19" viewBox="0 0 288.615 66.19"><defs><style>.a,.b{fill:#0a559e;}.b,.c{fill-rule:evenodd;}.c{fill:#f8a724;}.d{fill:url(#a);}</style><linearGradient id="a" x1="-0.157" x2="1.232" gradientUnits="objectBoundingBox"><stop offset="0" stop-color="#2b78ae"/><stop offset="1" stop-color="#fff" stop-opacity="0"/></linearGradient></defs><g transform="translate(-624 -216.4)"><g transform="translate(734.442 216.4)"><path class="a" d="M513.407,176.557v-47.97h29.386V139.12h-16.64v8.318h15.688V157.7H526.153v8.119h16.64v10.734Z" transform="translate(-364.621 -118.198)"/><path class="a" d="M426.022,176.557V128.586h12.613l18.137,24.668c.346.5.917,1.52,1.711,3.041s1.677,3.321,2.637,5.423c-.256-1.991-.446-3.756-.568-5.311s-.18-2.93-.18-4.127V128.586h12.545v47.971H460.373l-18.127-24.768a26.521,26.521,0,0,1-1.756-3.029c-.805-1.522-1.664-3.311-2.6-5.369.258,2.013.449,3.792.571,5.347s.179,2.929.179,4.125v23.7Z" transform="translate(-334.402 -118.197)"/><path class="b" d="M404.772,155.6a24.4,24.4,0,0,1-7.436,17.791q-.4.383-.8.747l-8.417-8.417.018-.023a15.993,15.993,0,0,0-.043-20.163l-.022-.022,8.464-8.462q.408.37.8.758a24.514,24.514,0,0,1,7.436,17.792Z" transform="translate(-318.998 -121.123)"/><path class="c" d="M360.779,161.651a11.509,11.509,0,0,1-9.046-3.969,16.213,16.213,0,0,1,.057-20.194,12.138,12.138,0,0,1,14.8-2.551l8.377-8.377a25.946,25.946,0,0,0-11.12-3.976V113.81h-7.239v8.928a25.638,25.638,0,0,0-5.657,1.577,25.247,25.247,0,0,0-8.263,5.456,24.623,24.623,0,0,0,0,35.583,25.229,25.229,0,0,0,8.263,5.457,25.745,25.745,0,0,0,5.657,1.577V180h7.239v-7.462a25.839,25.839,0,0,0,6.739-1.728,26.774,26.774,0,0,0,4.359-2.265l-8.325-8.328A11.825,11.825,0,0,1,360.779,161.651Z" transform="translate(-300.005 -113.81)"/><path class="c" d="M290.613,176.557V139.923H279.879V128.585h23.815l0,47.972Z" transform="translate(-279.879 -118.197)"/></g><path class="d" d="M23.845-50.8H3v-8.545L22.5-89.186H33.56v29.841H39.7V-50.8H33.56v9.631H23.845Zm0-25.094H23.71L13.119-59.345H23.845Zm19.7,10.716a50.02,50.02,0,0,1,.776-8.681,25.525,25.525,0,0,1,2.766-8,16.525,16.525,0,0,1,5.431-5.866A15.615,15.615,0,0,1,61.286-90a15.615,15.615,0,0,1,8.77,2.272,16.525,16.525,0,0,1,5.431,5.866,25.526,25.526,0,0,1,2.766,8,50.021,50.021,0,0,1,.776,8.681,50.021,50.021,0,0,1-.776,8.681,25.526,25.526,0,0,1-2.766,8,16.525,16.525,0,0,1-5.431,5.866,15.615,15.615,0,0,1-8.77,2.272,15.615,15.615,0,0,1-8.77-2.272,16.525,16.525,0,0,1-5.431-5.866,25.525,25.525,0,0,1-2.766-8A50.02,50.02,0,0,1,43.544-65.178Zm10.119,0q0,1.9.169,4.544a22.314,22.314,0,0,0,.911,5.087A10.82,10.82,0,0,0,57-51.41a5.451,5.451,0,0,0,4.284,1.7,5.474,5.474,0,0,0,4.25-1.7,10.585,10.585,0,0,0,2.294-4.137,22.316,22.316,0,0,0,.911-5.087q.169-2.645.169-4.544t-.169-4.544a22.315,22.315,0,0,0-.911-5.087,10.585,10.585,0,0,0-2.294-4.137,5.474,5.474,0,0,0-4.25-1.7A5.451,5.451,0,0,0,57-78.945a10.82,10.82,0,0,0-2.26,4.137,22.314,22.314,0,0,0-.911,5.087Q53.663-67.077,53.663-65.178ZM103.719-50.8H82.874v-8.545l19.5-29.841h11.064v29.841h6.139V-50.8h-6.139v9.631h-9.714Zm0-25.094h-.135L92.993-59.345h10.726Z" transform="translate(621 315.942)"/></g></svg>